<svg xmlns="http://www.w3.org/2000/svg" width="288" height="304" viewBox="0 0 175 185">
    <defs>
        <linearGradient id="a" x1="0%" x2="99.991%" y1="49.997%" y2="49.997%">
            <stop offset="0%" stop-color="#F62144"/>
            <stop offset="100%" stop-color="#6C03B3"/>
        </linearGradient>
    </defs>
    <g fill="none" fill-rule="evenodd">
        <g fill="#340057">
            <path d="M13.825 138.177c8.991 0 12.648 3.521 12.648 11.046v20.656s-1.321.475-3.838.475c-2.395 0-3.838-.475-3.838-.475l-1.08-2.926c-1.321 2.626-4.194 4.002-8.394 4.002-5.932 0-9.293-3.401-9.293-10.385 0-6.803 4.134-9.61 11.99-9.61 1.799 0 3.658.12 5.214.24v-.955c0-2.687-1.26-4.538-4.918-4.538-3.717 0-7.313 1.37-7.313 1.37s-1.201-.895-1.98-2.806c-.839-1.911-.597-3.642-.597-3.642s4.743-2.452 11.399-2.452zm-.422 18.384c-2.637 0-4.134 1.136-4.134 4.057 0 3.107 1.261 4.177 3.476 4.177 3.295 0 4.496-3.107 4.496-6.269v-1.784a39.14 39.14 0 0 0-3.838-.18zM55.608 163.13s.537 1.316.537 3.642c0 2.212-.537 3.582-.537 3.582h-23.8c-.362-1.196-.477-2.506-.477-3.762 0-1.196.181-2.326.477-3.462l13.91-17.195H32.465s-.477-1.49-.477-3.642c0-2.151.477-3.582.477-3.582h23.196c.302 1.016.422 2.152.422 3.402 0 1.316-.12 2.626-.422 3.822L41.76 163.13h13.849zM84.32 138.357c5.877 0 8.454 1.61 8.454 1.61 0 1.551-.537 3.282-1.557 4.238 0 0-2.878-.956-6.294-.956-4.073 0-6.113 1.49-6.113 4.297 0 2.927 3.778 3.642 7.556 4.898 3.898 1.256 7.971 3.108 7.971 8.955 0 6.028-3.778 9.55-11.387 9.55-6.294 0-10.011-2.151-10.011-2.151 0-1.731.537-3.402 1.617-4.418 0 0 3.898 1.49 8.092 1.49 3.657 0 5.757-1.37 5.757-4.296 0-3.282-3.295-4.003-6.83-5.013-4.074-1.196-8.516-2.927-8.516-8.835-.012-5.613 3.645-9.37 11.26-9.37zM125.5 169.94s-1.02.42-3 .42c-2.04 0-3-.42-3-.42v-21.492c0-3.342-1.737-5.253-5.575-5.253-2.637 0-5.214 1.43-6.777 3.822v22.929s-1.08.42-2.999.42c-2.1 0-2.999-.42-2.999-.42v-43.94s.9-.42 3-.42c1.918 0 2.998.42 2.998.42v16.12c2.16-2.447 5.274-3.763 9.052-3.763 5.992 0 9.293 3.642 9.293 9.015v22.562h.006zM140.308 132.924s-1.08.42-3.12.42c-2.16 0-3.12-.42-3.12-.42v-5.614s.96-.42 3.12-.42c2.04 0 3.12.42 3.12.42v5.614zm-.12 37.016s-1.02.42-3 .42c-2.1 0-3-.42-3-.42v-30.567s.9-.421 3-.421c1.98 0 3 .42 3 .42v30.568zM163.685 138.357c6.831 0 11.273 4.117 11.273 16.299 0 12.176-4.436 16.3-11.273 16.3-4.254 0-6.951-1.431-8.629-3.883v16.714s-1.02.36-3.06.36c-1.979 0-2.938-.36-2.938-.36v-44.414s.96-.421 2.939-.421c2.04 0 3.059.42 3.059.42v2.867c1.672-2.452 4.369-3.882 8.63-3.882zm-2.1 4.892c-4.194 0-6.535 3.462-6.535 7.525v7.644c0 4.117 2.335 7.645 6.535 7.645 4.798 0 7.193-2.506 7.193-11.401 0-8.907-2.395-11.413-7.193-11.413z"/>
        </g>
        <path fill="url(#a)" d="M86.022 97.272c-13.524-.643-25.23-7.644-32.363-17.952l12.594-5.234a28.36 28.36 0 0 0 21.766 10.133c6.45 0 12.395-2.146 17.162-5.758l11.08 5.132V58.658c.084-.89.132-1.785.132-2.693 0-.895-.048-1.779-.127-2.656l12.727-5.289 13.36-5.553a55.335 55.335 0 0 0-5.485-13.847c-9.112-16.221-26.16-27.544-46.176-28.5-25.14-1.196-47.19 14.328-55.306 36.74l12.956 6.124c5.649-17.405 22.442-29.612 41.668-28.692 14.326.685 26.612 8.486 33.582 19.815.006.006.012.012.012.024l-12.624 5.247c-5.16-7.068-13.517-11.672-22.967-11.672-15.672 0-28.374 12.651-28.374 28.26 0 1.562.133 3.095.38 4.591L47.522 65.75l-13.258 5.51a55.2 55.2 0 0 0 6.028 13.62c9.354 15.187 25.834 25.656 45.048 26.57 21.26 1.016 40.31-9.929 50.593-26.877l-12.962-6.13c-7.827 11.936-21.616 19.563-36.95 18.83zM75.202 54.24a13.522 13.522 0 0 1 13.342-11.238c2.897 0 5.582.913 7.784 2.458 3.482 2.44 5.763 6.467 5.763 11.034 0 .968-.108 1.911-.301 2.819-1.304 6.094-6.735 10.674-13.246 10.674-2.691 0-5.19-.788-7.296-2.134-3.753-2.398-6.251-6.58-6.251-11.359.006-.769.084-1.52.205-2.254z"/>
    </g>
</svg>
